<?xml version="1.0" encoding="us-ascii" standalone="no"?><svg xmlns="http://www.w3.org/2000/svg" xmlns:xlink="http://www.w3.org/1999/xlink" contentStyleType="text/css" height="444px" preserveAspectRatio="none" style="width:625px;height:444px;background:#FFFFFF;" version="1.1" viewBox="0 0 625 444" width="625px" zoomAndPan="magnify"><defs/><g><text fill="#000000" font-family="sans-serif" font-size="14" font-weight="bold" lengthAdjust="spacing" textLength="505" x="59.25" y="27.9951">US015: Display Older Posts in Red - System Sequence Diagram</text><rect fill="#FFFFFF" height="29.1328" style="stroke:#181818;stroke-width:1.0;" width="10" x="534.5" y="149.7266"/><rect fill="#FFFFFF" height="29.1328" style="stroke:#181818;stroke-width:1.0;" width="10" x="534.5" y="207.9922"/><rect fill="#FFFFFF" height="29.1328" style="stroke:#181818;stroke-width:1.0;" width="10" x="534.5" y="316.5234"/><line style="stroke:#181818;stroke-width:0.5;stroke-dasharray:5.0,5.0;" x1="137" x2="137" y1="118.5938" y2="363.6563"/><line style="stroke:#181818;stroke-width:0.5;stroke-dasharray:5.0,5.0;" x1="539.5" x2="539.5" y1="118.5938" y2="363.6563"/><text fill="#000000" font-family="sans-serif" font-size="14" lengthAdjust="spacing" textLength="31" x="119" y="115.292">User</text><ellipse cx="137.5" cy="50.7969" fill="#E2E2F0" rx="8" ry="8" style="stroke:#181818;stroke-width:0.5;"/><path d="M137.5,58.7969 L137.5,85.7969 M124.5,66.7969 L150.5,66.7969 M137.5,85.7969 L124.5,100.7969 M137.5,85.7969 L150.5,100.7969 " fill="none" style="stroke:#181818;stroke-width:0.5;"/><text fill="#000000" font-family="sans-serif" font-size="14" lengthAdjust="spacing" textLength="31" x="119" y="375.6514">User</text><ellipse cx="137.5" cy="387.4531" fill="#E2E2F0" rx="8" ry="8" style="stroke:#181818;stroke-width:0.5;"/><path d="M137.5,395.4531 L137.5,422.4531 M124.5,403.4531 L150.5,403.4531 M137.5,422.4531 L124.5,437.4531 M137.5,422.4531 L150.5,437.4531 " fill="none" style="stroke:#181818;stroke-width:0.5;"/><rect fill="#E2E2F0" height="30.2969" rx="2.5" ry="2.5" style="stroke:#181818;stroke-width:0.5;" width="160" x="459.5" y="87.2969"/><text fill="#000000" font-family="sans-serif" font-size="14" lengthAdjust="spacing" textLength="146" x="466.5" y="107.292">DDD Forum Website</text><rect fill="#E2E2F0" height="30.2969" rx="2.5" ry="2.5" style="stroke:#181818;stroke-width:0.5;" width="160" x="459.5" y="362.6563"/><text fill="#000000" font-family="sans-serif" font-size="14" lengthAdjust="spacing" textLength="146" x="466.5" y="382.6514">DDD Forum Website</text><rect fill="#FFFFFF" height="29.1328" style="stroke:#181818;stroke-width:1.0;" width="10" x="534.5" y="149.7266"/><rect fill="#FFFFFF" height="29.1328" style="stroke:#181818;stroke-width:1.0;" width="10" x="534.5" y="207.9922"/><rect fill="#FFFFFF" height="29.1328" style="stroke:#181818;stroke-width:1.0;" width="10" x="534.5" y="316.5234"/><polygon fill="#181818" points="522.5,145.7266,532.5,149.7266,522.5,153.7266,526.5,149.7266" style="stroke:#181818;stroke-width:1.0;"/><line style="stroke:#181818;stroke-width:1.0;" x1="137.5" x2="528.5" y1="149.7266" y2="149.7266"/><text fill="#000000" font-family="sans-serif" font-size="13" lengthAdjust="spacing" textLength="201" x="144.5" y="144.6606">1. Navega para visualizar posts</text><polygon fill="#181818" points="148.5,174.8594,138.5,178.8594,148.5,182.8594,144.5,178.8594" style="stroke:#181818;stroke-width:1.0;"/><line style="stroke:#181818;stroke-width:1.0;stroke-dasharray:2.0,2.0;" x1="142.5" x2="538.5" y1="178.8594" y2="178.8594"/><text fill="#000000" font-family="sans-serif" font-size="13" lengthAdjust="spacing" textLength="157" x="154.5" y="173.7935">2. Exibe p&#225;gina de posts</text><polygon fill="#181818" points="522.5,203.9922,532.5,207.9922,522.5,211.9922,526.5,207.9922" style="stroke:#181818;stroke-width:1.0;"/><line style="stroke:#181818;stroke-width:1.0;" x1="137.5" x2="528.5" y1="207.9922" y2="207.9922"/><text fill="#000000" font-family="sans-serif" font-size="13" lengthAdjust="spacing" textLength="178" x="144.5" y="202.9263">3. Visualiza posts populares</text><polygon fill="#181818" points="148.5,233.125,138.5,237.125,148.5,241.125,144.5,237.125" style="stroke:#181818;stroke-width:1.0;"/><line style="stroke:#181818;stroke-width:1.0;stroke-dasharray:2.0,2.0;" x1="142.5" x2="538.5" y1="237.125" y2="237.125"/><text fill="#000000" font-family="sans-serif" font-size="13" lengthAdjust="spacing" textLength="157" x="154.5" y="232.0591">4. Exibe posts populares</text><path d="M5,250.125 L5,290.125 L270,290.125 L270,260.125 L260,250.125 L5,250.125 " fill="#FEFFDD" style="stroke:#181818;stroke-width:0.5;"/><path d="M260,250.125 L260,260.125 L270,260.125 L260,250.125 " fill="#FEFFDD" style="stroke:#181818;stroke-width:0.5;"/><text fill="#000000" font-family="sans-serif" font-size="13" lengthAdjust="spacing" textLength="244" x="11" y="267.1919">Detecta posts com mais de cinco dias</text><text fill="#000000" font-family="sans-serif" font-size="13" lengthAdjust="spacing" textLength="207" x="11" y="282.3247">e solicita exibi&#231;&#227;o em vermelho.</text><polygon fill="#181818" points="522.5,312.5234,532.5,316.5234,522.5,320.5234,526.5,316.5234" style="stroke:#181818;stroke-width:1.0;"/><line style="stroke:#181818;stroke-width:1.0;" x1="137.5" x2="528.5" y1="316.5234" y2="316.5234"/><text fill="#000000" font-family="sans-serif" font-size="13" lengthAdjust="spacing" textLength="378" x="144.5" y="311.4575">5. Solicita visualiza&#231;&#227;o de posts mais antigos em vermelho</text><polygon fill="#181818" points="148.5,341.6563,138.5,345.6563,148.5,349.6563,144.5,345.6563" style="stroke:#181818;stroke-width:1.0;"/><line style="stroke:#181818;stroke-width:1.0;stroke-dasharray:2.0,2.0;" x1="142.5" x2="538.5" y1="345.6563" y2="345.6563"/><text fill="#000000" font-family="sans-serif" font-size="13" lengthAdjust="spacing" textLength="266" x="154.5" y="340.5903">6. Exibe posts mais antigos em vermelho</text><!--SRC=[dPAnJiD044HxVyKeVIm2X285bQ44X1MeD-ULizBvpjoTBSBV80e-93_6sOaZ27AAkB2iyVhDtAo31CrOvXUp-GAP-5hJ1e-wO8SdwuE763npWIdoZGzS8UUtXetYE4obeof9I0NhC5bwTXEGH_UGrEI2AAd914ooBCEzTKs5Lrvv2TpFHRKNzrgIT1zYUdlyOe5PYWTgkIH4BA4Ltv2M3tAekunT0cafy3yaudMaOHeTEgS5BbFSlSkAKMy_Ip64WlV0WaUHuoclKhmCoNQSUAyRJOxFZdXzY7Z4EvNGsAZQDiRiLz4xS60LXbZALgX8V7TW9KPP54A-7sHug-FYuYn7Ozb-RxyiujuZhcAzjcd2fa1dSQAAUOfym1osjKCD7Uy2nDz3Ikj_6vnRrStVgaRnuytz0000]--></g></svg>