
<?xml version="1.0" encoding="us-ascii" standalone="no"?><svg xmlns="http://www.w3.org/2000/svg" xmlns:xlink="http://www.w3.org/1999/xlink" contentStyleType="text/css" height="450px" preserveAspectRatio="none" style="width:1323px;height:450px;background:#FFFFFF;" version="1.1" viewBox="0 0 1323 450" width="1323px" zoomAndPan="magnify"><defs/><g><text fill="#000000" font-family="sans-serif" font-size="14" font-weight="bold" lengthAdjust="spacing" textLength="201" x="560.25" y="27.9951">US 013: Unpopular Posts</text><rect fill="#FFFFFF" height="201.6641" style="stroke:#181818;stroke-width:1.0;" width="10" x="257" y="149.7266"/><rect fill="#FFFFFF" height="158.5313" style="stroke:#181818;stroke-width:1.0;" width="10" x="429" y="178.8594"/><rect fill="#FFFFFF" height="115.3984" style="stroke:#181818;stroke-width:1.0;" width="10" x="928.5" y="207.9922"/><rect fill="#FFFFFF" height="14" style="stroke:#181818;stroke-width:1.0;" width="10" x="1139" y="237.125"/><rect fill="#FFFFFF" height="14" style="stroke:#181818;stroke-width:1.0;" width="10" x="1270" y="280.2578"/><line style="stroke:#181818;stroke-width:0.5;stroke-dasharray:5.0,5.0;" x1="38" x2="38" y1="118.5938" y2="369.3906"/><line style="stroke:#181818;stroke-width:0.5;stroke-dasharray:5.0,5.0;" x1="261.5" x2="261.5" y1="118.5938" y2="369.3906"/><line style="stroke:#181818;stroke-width:0.5;stroke-dasharray:5.0,5.0;" x1="433.5" x2="433.5" y1="118.5938" y2="369.3906"/><line style="stroke:#181818;stroke-width:0.5;stroke-dasharray:5.0,5.0;" x1="679.5" x2="679.5" y1="118.5938" y2="369.3906"/><line style="stroke:#181818;stroke-width:0.5;stroke-dasharray:5.0,5.0;" x1="933.5" x2="933.5" y1="118.5938" y2="369.3906"/><line style="stroke:#181818;stroke-width:0.5;stroke-dasharray:5.0,5.0;" x1="1143.5" x2="1143.5" y1="118.5938" y2="369.3906"/><line style="stroke:#181818;stroke-width:0.5;stroke-dasharray:5.0,5.0;" x1="1274.5" x2="1274.5" y1="118.5938" y2="369.3906"/><text fill="#000000" font-family="sans-serif" font-size="14" lengthAdjust="spacing" textLength="60" x="5" y="115.292">Membro</text><ellipse cx="38" cy="50.7969" fill="#E2E2F0" rx="8" ry="8" style="stroke:#181818;stroke-width:0.5;"/><path d="M38,58.7969 L38,85.7969 M25,66.7969 L51,66.7969 M38,85.7969 L25,100.7969 M38,85.7969 L51,100.7969 " fill="none" style="stroke:#181818;stroke-width:0.5;"/><text fill="#000000" font-family="sans-serif" font-size="14" lengthAdjust="spacing" textLength="60" x="5" y="381.3857">Membro</text><ellipse cx="38" cy="393.1875" fill="#E2E2F0" rx="8" ry="8" style="stroke:#181818;stroke-width:0.5;"/><path d="M38,401.1875 L38,428.1875 M25,409.1875 L51,409.1875 M38,428.1875 L25,443.1875 M38,428.1875 L51,443.1875 " fill="none" style="stroke:#181818;stroke-width:0.5;"/><rect fill="#E2E2F0" height="30.2969" rx="2.5" ry="2.5" style="stroke:#181818;stroke-width:0.5;" width="95" x="214.5" y="87.2969"/><text fill="#000000" font-family="sans-serif" font-size="14" lengthAdjust="spacing" textLength="81" x="221.5" y="107.292">PostRouter</text><rect fill="#E2E2F0" height="30.2969" rx="2.5" ry="2.5" style="stroke:#181818;stroke-width:0.5;" width="95" x="214.5" y="368.3906"/><text fill="#000000" font-family="sans-serif" font-size="14" lengthAdjust="spacing" textLength="81" x="221.5" y="388.3857">PostRouter</text><rect fill="#E2E2F0" height="46.5938" rx="2.5" ry="2.5" style="stroke:#181818;stroke-width:0.5;" width="229" x="319.5" y="71"/><text fill="#000000" font-family="sans-serif" font-size="14" lengthAdjust="spacing" textLength="215" x="326.5" y="90.9951">getUnpopularPostsController:</text><text fill="#000000" font-family="sans-serif" font-size="14" lengthAdjust="spacing" textLength="139" x="366.5" y="107.292">GetUnpopularPosts</text><rect fill="#E2E2F0" height="46.5938" rx="2.5" ry="2.5" style="stroke:#181818;stroke-width:0.5;" width="229" x="319.5" y="368.3906"/><text fill="#000000" font-family="sans-serif" font-size="14" lengthAdjust="spacing" textLength="215" x="326.5" y="388.3857">getUnpopularPostsController:</text><text fill="#000000" font-family="sans-serif" font-size="14" lengthAdjust="spacing" textLength="139" x="366.5" y="404.6826">GetUnpopularPosts</text><rect fill="#E2E2F0" height="30.2969" rx="2.5" ry="2.5" style="stroke:#181818;stroke-width:0.5;" width="243" x="558.5" y="87.2969"/><text fill="#000000" font-family="sans-serif" font-size="14" lengthAdjust="spacing" textLength="229" x="565.5" y="107.292">GetUnpopularPostsRequestDTO</text><rect fill="#E2E2F0" height="30.2969" rx="2.5" ry="2.5" style="stroke:#181818;stroke-width:0.5;" width="243" x="558.5" y="368.3906"/><text fill="#000000" font-family="sans-serif" font-size="14" lengthAdjust="spacing" textLength="229" x="565.5" y="388.3857">GetUnpopularPostsRequestDTO</text><rect fill="#E2E2F0" height="30.2969" rx="2.5" ry="2.5" style="stroke:#181818;stroke-width:0.5;" width="244" x="811.5" y="87.2969"/><text fill="#000000" font-family="sans-serif" font-size="14" lengthAdjust="spacing" textLength="230" x="818.5" y="107.292">caso de uso: GetUnpopularPosts</text><rect fill="#E2E2F0" height="30.2969" rx="2.5" ry="2.5" style="stroke:#181818;stroke-width:0.5;" width="244" x="811.5" y="368.3906"/><text fill="#000000" font-family="sans-serif" font-size="14" lengthAdjust="spacing" textLength="230" x="818.5" y="388.3857">caso de uso: GetUnpopularPosts</text><rect fill="#E2E2F0" height="30.2969" rx="2.5" ry="2.5" style="stroke:#181818;stroke-width:0.5;" width="157" x="1065.5" y="87.2969"/><text fill="#000000" font-family="sans-serif" font-size="14" lengthAdjust="spacing" textLength="143" x="1072.5" y="107.292">Reposit&#243;rioDePosts</text><rect fill="#E2E2F0" height="30.2969" rx="2.5" ry="2.5" style="stroke:#181818;stroke-width:0.5;" width="157" x="1065.5" y="368.3906"/><text fill="#000000" font-family="sans-serif" font-size="14" lengthAdjust="spacing" textLength="143" x="1072.5" y="388.3857">Reposit&#243;rioDePosts</text><rect fill="#E2E2F0" height="30.2969" rx="2.5" ry="2.5" style="stroke:#181818;stroke-width:0.5;" width="85" x="1232.5" y="87.2969"/><text fill="#000000" font-family="sans-serif" font-size="14" lengthAdjust="spacing" textLength="71" x="1239.5" y="107.292">Resultado</text><rect fill="#E2E2F0" height="30.2969" rx="2.5" ry="2.5" style="stroke:#181818;stroke-width:0.5;" width="85" x="1232.5" y="368.3906"/><text fill="#000000" font-family="sans-serif" font-size="14" lengthAdjust="spacing" textLength="71" x="1239.5" y="388.3857">Resultado</text><rect fill="#FFFFFF" height="201.6641" style="stroke:#181818;stroke-width:1.0;" width="10" x="257" y="149.7266"/><rect fill="#FFFFFF" height="158.5313" style="stroke:#181818;stroke-width:1.0;" width="10" x="429" y="178.8594"/><rect fill="#FFFFFF" height="115.3984" style="stroke:#181818;stroke-width:1.0;" width="10" x="928.5" y="207.9922"/><rect fill="#FFFFFF" height="14" style="stroke:#181818;stroke-width:1.0;" width="10" x="1139" y="237.125"/><rect fill="#FFFFFF" height="14" style="stroke:#181818;stroke-width:1.0;" width="10" x="1270" y="280.2578"/><polygon fill="#181818" points="245,145.7266,255,149.7266,245,153.7266,249,149.7266" style="stroke:#181818;stroke-width:1.0;"/><line style="stroke:#181818;stroke-width:1.0;" x1="38" x2="251" y1="149.7266" y2="149.7266"/><text fill="#000000" font-family="sans-serif" font-size="13" lengthAdjust="spacing" textLength="200" x="45" y="144.6606">GET ("/api/v1/posts/unpopular")</text><polygon fill="#181818" points="417,174.8594,427,178.8594,417,182.8594,421,178.8594" style="stroke:#181818;stroke-width:1.0;"/><line style="stroke:#181818;stroke-width:1.0;" x1="267" x2="423" y1="178.8594" y2="178.8594"/><text fill="#000000" font-family="sans-serif" font-size="13" lengthAdjust="spacing" textLength="111" x="274" y="173.7935">execute(req, res)</text><polygon fill="#181818" points="916.5,203.9922,926.5,207.9922,916.5,211.9922,920.5,207.9922" style="stroke:#181818;stroke-width:1.0;"/><line style="stroke:#181818;stroke-width:1.0;" x1="439" x2="922.5" y1="207.9922" y2="207.9922"/><text fill="#000000" font-family="sans-serif" font-size="13" lengthAdjust="spacing" textLength="83" x="446" y="202.9263">execute(dto)</text><polygon fill="#181818" points="1127,233.125,1137,237.125,1127,241.125,1131,237.125" style="stroke:#181818;stroke-width:1.0;"/><line style="stroke:#181818;stroke-width:1.0;" x1="938.5" x2="1133" y1="237.125" y2="237.125"/><text fill="#000000" font-family="sans-serif" font-size="13" lengthAdjust="spacing" textLength="73" x="945.5" y="232.0591">(req.offset)</text><polygon fill="#181818" points="949.5,247.125,939.5,251.125,949.5,255.125,945.5,251.125" style="stroke:#181818;stroke-width:1.0;"/><line style="stroke:#181818;stroke-width:1.0;stroke-dasharray:2.0,2.0;" x1="943.5" x2="1143" y1="251.125" y2="251.125"/><polygon fill="#181818" points="1258,276.2578,1268,280.2578,1258,284.2578,1262,280.2578" style="stroke:#181818;stroke-width:1.0;"/><line style="stroke:#181818;stroke-width:1.0;" x1="938.5" x2="1264" y1="280.2578" y2="280.2578"/><text fill="#000000" font-family="sans-serif" font-size="13" lengthAdjust="spacing" textLength="61" x="945.5" y="275.1919">ok(result)</text><polygon fill="#181818" points="949.5,290.2578,939.5,294.2578,949.5,298.2578,945.5,294.2578" style="stroke:#181818;stroke-width:1.0;"/><line style="stroke:#181818;stroke-width:1.0;stroke-dasharray:2.0,2.0;" x1="943.5" x2="1274" y1="294.2578" y2="294.2578"/><polygon fill="#181818" points="450,319.3906,440,323.3906,450,327.3906,446,323.3906" style="stroke:#181818;stroke-width:1.0;"/><line style="stroke:#181818;stroke-width:1.0;stroke-dasharray:2.0,2.0;" x1="444" x2="932.5" y1="323.3906" y2="323.3906"/><text fill="#000000" font-family="sans-serif" font-size="13" lengthAdjust="spacing" textLength="61" x="456" y="318.3247">ok(result)</text><polygon fill="#181818" points="278,333.3906,268,337.3906,278,341.3906,274,337.3906" style="stroke:#181818;stroke-width:1.0;"/><line style="stroke:#181818;stroke-width:1.0;stroke-dasharray:2.0,2.0;" x1="272" x2="433" y1="337.3906" y2="337.3906"/><polygon fill="#181818" points="49,347.3906,39,351.3906,49,355.3906,45,351.3906" style="stroke:#181818;stroke-width:1.0;"/><line style="stroke:#181818;stroke-width:1.0;stroke-dasharray:2.0,2.0;" x1="43" x2="261" y1="351.3906" y2="351.3906"/><!--SRC=[ZPEnJiCm48PtFyKfKv4eeMBpm48H4mA5TcCnoHLPX9nhNohUYqVWnOZRaZZKc6pEdVtzl_wxiEOQOVq4buih2Ul6a6bhPU6H73iXLCbauHxVNom9eophKXlLyBvVKCjeH-Ni5Rc7x1atrB2bkaOhdnku-ztEGBdJwl1eH3-vL-2sHSVBrSFOHQaSGONGEf9JDKU40WqvpL-VLjCIOttNrgmg4k8G3iolWqmwqTiLpB9S6Ptl5hdnWBpzqSlEVB1wfnZ38CLmzhX4AXBm0ylkuipYzXmike2OIbCacb7DGQbYIeb4q1uO2LA2Ttr1cur33f2np4Ma2FEOKL5XclI7lUCS9T1RPyj_ZIprO-wFK-JxLn7H_oOR-0YOK_8EHpbQnoGet8vm0Jl2yRyFNiUPXtlV]--></g></svg>