<?xml version="1.0" encoding="us-ascii" standalone="no"?><svg xmlns="http://www.w3.org/2000/svg" xmlns:xlink="http://www.w3.org/1999/xlink" contentStyleType="text/css" height="450px" preserveAspectRatio="none" style="width:1121px;height:450px;background:#FFFFFF;" version="1.1" viewBox="0 0 1121 450" width="1121px" zoomAndPan="magnify"><defs/><g><text fill="#000000" font-family="sans-serif" font-size="14" font-weight="bold" lengthAdjust="spacing" textLength="419" x="350.25" y="27.9951">US 15: Popular posts older than five days are in red</text><rect fill="#FFFFFF" height="201.6641" style="stroke:#181818;stroke-width:1.0;" width="10" x="241" y="149.7266"/><rect fill="#FFFFFF" height="158.5313" style="stroke:#181818;stroke-width:1.0;" width="10" x="403.5" y="178.8594"/><rect fill="#FFFFFF" height="115.3984" style="stroke:#181818;stroke-width:1.0;" width="10" x="850" y="207.9922"/><rect fill="#FFFFFF" height="14" style="stroke:#181818;stroke-width:1.0;" width="10" x="999.5" y="237.125"/><rect fill="#FFFFFF" height="14" style="stroke:#181818;stroke-width:1.0;" width="10" x="1081" y="280.2578"/><line style="stroke:#181818;stroke-width:0.5;stroke-dasharray:5.0,5.0;" x1="38" x2="38" y1="118.5938" y2="369.3906"/><line style="stroke:#181818;stroke-width:0.5;stroke-dasharray:5.0,5.0;" x1="245.5" x2="245.5" y1="118.5938" y2="369.3906"/><line style="stroke:#181818;stroke-width:0.5;stroke-dasharray:5.0,5.0;" x1="408.5" x2="408.5" y1="118.5938" y2="369.3906"/><line style="stroke:#181818;stroke-width:0.5;stroke-dasharray:5.0,5.0;" x1="635.5" x2="635.5" y1="118.5938" y2="369.3906"/><line style="stroke:#181818;stroke-width:0.5;stroke-dasharray:5.0,5.0;" x1="854.5" x2="854.5" y1="118.5938" y2="369.3906"/><line style="stroke:#181818;stroke-width:0.5;stroke-dasharray:5.0,5.0;" x1="1004.5" x2="1004.5" y1="118.5938" y2="369.3906"/><line style="stroke:#181818;stroke-width:0.5;stroke-dasharray:5.0,5.0;" x1="1085.5" x2="1085.5" y1="118.5938" y2="369.3906"/><text fill="#000000" font-family="sans-serif" font-size="14" lengthAdjust="spacing" textLength="60" x="5" y="115.292">Member</text><ellipse cx="38" cy="50.7969" fill="#E2E2F0" rx="8" ry="8" style="stroke:#181818;stroke-width:0.5;"/><path d="M38,58.7969 L38,85.7969 M25,66.7969 L51,66.7969 M38,85.7969 L25,100.7969 M38,85.7969 L51,100.7969 " fill="none" style="stroke:#181818;stroke-width:0.5;"/><text fill="#000000" font-family="sans-serif" font-size="14" lengthAdjust="spacing" textLength="60" x="5" y="381.3857">Member</text><ellipse cx="38" cy="393.1875" fill="#E2E2F0" rx="8" ry="8" style="stroke:#181818;stroke-width:0.5;"/><path d="M38,401.1875 L38,428.1875 M25,409.1875 L51,409.1875 M38,428.1875 L25,443.1875 M38,428.1875 L51,443.1875 " fill="none" style="stroke:#181818;stroke-width:0.5;"/><rect fill="#E2E2F0" height="30.2969" rx="2.5" ry="2.5" style="stroke:#181818;stroke-width:0.5;" width="95" x="198.5" y="87.2969"/><text fill="#000000" font-family="sans-serif" font-size="14" lengthAdjust="spacing" textLength="81" x="205.5" y="107.292">PostRouter</text><rect fill="#E2E2F0" height="30.2969" rx="2.5" ry="2.5" style="stroke:#181818;stroke-width:0.5;" width="95" x="198.5" y="368.3906"/><text fill="#000000" font-family="sans-serif" font-size="14" lengthAdjust="spacing" textLength="81" x="205.5" y="388.3857">PostRouter</text><rect fill="#E2E2F0" height="46.5938" rx="2.5" ry="2.5" style="stroke:#181818;stroke-width:0.5;" width="210" x="303.5" y="71"/><text fill="#000000" font-family="sans-serif" font-size="14" lengthAdjust="spacing" textLength="196" x="310.5" y="90.9951">getPopularPostsController:</text><text fill="#000000" font-family="sans-serif" font-size="14" lengthAdjust="spacing" textLength="120" x="350.5" y="107.292">GetPopularPosts</text><rect fill="#E2E2F0" height="46.5938" rx="2.5" ry="2.5" style="stroke:#181818;stroke-width:0.5;" width="210" x="303.5" y="368.3906"/><text fill="#000000" font-family="sans-serif" font-size="14" lengthAdjust="spacing" textLength="196" x="310.5" y="388.3857">getPopularPostsController:</text><text fill="#000000" font-family="sans-serif" font-size="14" lengthAdjust="spacing" textLength="120" x="350.5" y="404.6826">GetPopularPosts</text><rect fill="#E2E2F0" height="30.2969" rx="2.5" ry="2.5" style="stroke:#181818;stroke-width:0.5;" width="224" x="523.5" y="87.2969"/><text fill="#000000" font-family="sans-serif" font-size="14" lengthAdjust="spacing" textLength="210" x="530.5" y="107.292">GetPopularPostsRequestDTO</text><rect fill="#E2E2F0" height="30.2969" rx="2.5" ry="2.5" style="stroke:#181818;stroke-width:0.5;" width="224" x="523.5" y="368.3906"/><text fill="#000000" font-family="sans-serif" font-size="14" lengthAdjust="spacing" textLength="210" x="530.5" y="388.3857">GetPopularPostsRequestDTO</text><rect fill="#E2E2F0" height="30.2969" rx="2.5" ry="2.5" style="stroke:#181818;stroke-width:0.5;" width="195" x="757.5" y="87.2969"/><text fill="#000000" font-family="sans-serif" font-size="14" lengthAdjust="spacing" textLength="181" x="764.5" y="107.292">usecase:GetPopularPosts</text><rect fill="#E2E2F0" height="30.2969" rx="2.5" ry="2.5" style="stroke:#181818;stroke-width:0.5;" width="195" x="757.5" y="368.3906"/><text fill="#000000" font-family="sans-serif" font-size="14" lengthAdjust="spacing" textLength="181" x="764.5" y="388.3857">usecase:GetPopularPosts</text><rect fill="#E2E2F0" height="30.2969" rx="2.5" ry="2.5" style="stroke:#181818;stroke-width:0.5;" width="84" x="962.5" y="87.2969"/><text fill="#000000" font-family="sans-serif" font-size="14" lengthAdjust="spacing" textLength="70" x="969.5" y="107.292">PostRepo</text><rect fill="#E2E2F0" height="30.2969" rx="2.5" ry="2.5" style="stroke:#181818;stroke-width:0.5;" width="84" x="962.5" y="368.3906"/><text fill="#000000" font-family="sans-serif" font-size="14" lengthAdjust="spacing" textLength="70" x="969.5" y="388.3857">PostRepo</text><rect fill="#E2E2F0" height="30.2969" rx="2.5" ry="2.5" style="stroke:#181818;stroke-width:0.5;" width="59" x="1056.5" y="87.2969"/><text fill="#000000" font-family="sans-serif" font-size="14" lengthAdjust="spacing" textLength="45" x="1063.5" y="107.292">Result</text><rect fill="#E2E2F0" height="30.2969" rx="2.5" ry="2.5" style="stroke:#181818;stroke-width:0.5;" width="59" x="1056.5" y="368.3906"/><text fill="#000000" font-family="sans-serif" font-size="14" lengthAdjust="spacing" textLength="45" x="1063.5" y="388.3857">Result</text><rect fill="#FFFFFF" height="201.6641" style="stroke:#181818;stroke-width:1.0;" width="10" x="241" y="149.7266"/><rect fill="#FFFFFF" height="158.5313" style="stroke:#181818;stroke-width:1.0;" width="10" x="403.5" y="178.8594"/><rect fill="#FFFFFF" height="115.3984" style="stroke:#181818;stroke-width:1.0;" width="10" x="850" y="207.9922"/><rect fill="#FFFFFF" height="14" style="stroke:#181818;stroke-width:1.0;" width="10" x="999.5" y="237.125"/><rect fill="#FFFFFF" height="14" style="stroke:#181818;stroke-width:1.0;" width="10" x="1081" y="280.2578"/><polygon fill="#181818" points="229,145.7266,239,149.7266,229,153.7266,233,149.7266" style="stroke:#181818;stroke-width:1.0;"/><line style="stroke:#181818;stroke-width:1.0;" x1="38" x2="235" y1="149.7266" y2="149.7266"/><text fill="#000000" font-family="sans-serif" font-size="13" lengthAdjust="spacing" textLength="184" x="45" y="144.6606">GET ("/api/v1/posts/popular")</text><polygon fill="#181818" points="391.5,174.8594,401.5,178.8594,391.5,182.8594,395.5,178.8594" style="stroke:#181818;stroke-width:1.0;"/><line style="stroke:#181818;stroke-width:1.0;" x1="251" x2="397.5" y1="178.8594" y2="178.8594"/><text fill="#000000" font-family="sans-serif" font-size="13" lengthAdjust="spacing" textLength="111" x="258" y="173.7935">execute(req, res)</text><polygon fill="#181818" points="838,203.9922,848,207.9922,838,211.9922,842,207.9922" style="stroke:#181818;stroke-width:1.0;"/><line style="stroke:#181818;stroke-width:1.0;" x1="413.5" x2="844" y1="207.9922" y2="207.9922"/><text fill="#000000" font-family="sans-serif" font-size="13" lengthAdjust="spacing" textLength="83" x="420.5" y="202.9263">execute(dto)</text><polygon fill="#181818" points="987.5,233.125,997.5,237.125,987.5,241.125,991.5,237.125" style="stroke:#181818;stroke-width:1.0;"/><line style="stroke:#181818;stroke-width:1.0;" x1="860" x2="993.5" y1="237.125" y2="237.125"/><text fill="#000000" font-family="sans-serif" font-size="13" lengthAdjust="spacing" textLength="73" x="867" y="232.0591">(req.offset)</text><polygon fill="#181818" points="871,247.125,861,251.125,871,255.125,867,251.125" style="stroke:#181818;stroke-width:1.0;"/><line style="stroke:#181818;stroke-width:1.0;stroke-dasharray:2.0,2.0;" x1="865" x2="1003.5" y1="251.125" y2="251.125"/><polygon fill="#181818" points="1069,276.2578,1079,280.2578,1069,284.2578,1073,280.2578" style="stroke:#181818;stroke-width:1.0;"/><line style="stroke:#181818;stroke-width:1.0;" x1="860" x2="1075" y1="280.2578" y2="280.2578"/><text fill="#000000" font-family="sans-serif" font-size="13" lengthAdjust="spacing" textLength="61" x="867" y="275.1919">ok(result)</text><polygon fill="#181818" points="871,290.2578,861,294.2578,871,298.2578,867,294.2578" style="stroke:#181818;stroke-width:1.0;"/><line style="stroke:#181818;stroke-width:1.0;stroke-dasharray:2.0,2.0;" x1="865" x2="1085" y1="294.2578" y2="294.2578"/><polygon fill="#181818" points="424.5,319.3906,414.5,323.3906,424.5,327.3906,420.5,323.3906" style="stroke:#181818;stroke-width:1.0;"/><line style="stroke:#181818;stroke-width:1.0;stroke-dasharray:2.0,2.0;" x1="418.5" x2="854" y1="323.3906" y2="323.3906"/><text fill="#000000" font-family="sans-serif" font-size="13" lengthAdjust="spacing" textLength="61" x="430.5" y="318.3247">ok(result)</text><polygon fill="#181818" points="262,333.3906,252,337.3906,262,341.3906,258,337.3906" style="stroke:#181818;stroke-width:1.0;"/><line style="stroke:#181818;stroke-width:1.0;stroke-dasharray:2.0,2.0;" x1="256" x2="407.5" y1="337.3906" y2="337.3906"/><polygon fill="#181818" points="49,347.3906,39,351.3906,49,355.3906,45,351.3906" style="stroke:#181818;stroke-width:1.0;"/><line style="stroke:#181818;stroke-width:1.0;stroke-dasharray:2.0,2.0;" x1="43" x2="245" y1="351.3906" y2="351.3906"/><!--SRC=[ZPCzJyCm48Pt_ufJfY9HeWui7bW0TKAWK3OMarp0miIkVOdWtsCt3N6-MfROEj-zZ-yzXoGfX9Tds5npUDAcLiA2qOuSQ5MW1VeG5PIoGIZ4ZmDX4MG55Wl6H4xQmWD-lQ5bHbYIkJIY8g_ZADCrZSB9Ez8H4JBShQx8QgNGyjSAjiF318GRn_g2WUueAyDzZOxkTez3Ukqm5mxvFq3JRj3eGJ13LojYhEqUrZTHqnoszpjO9QamCcqswS5E_pte9nV1Dza8mjWdrk-3s6BZ7F0RSv-sihY_z7DmaTwoNMpnQ8RMCmhIo_8JqJyNl5aSmWMlT5awf77BmKpMxM0zlG4hSAPY1jUEWOF-zBYmZL3TYDhr7ARBda1EJoC2HsBdd8hj7poT4oBnDEF7ukkFl-3Oj8bYc_SB]--></g></svg>